<?xml version="1.0" encoding="UTF-8" standalone="no"?>
<!--
  where did this except come from, you may ask?

  well, the long version is tedious, but the short version is:

  1. print one page -> save as pdf
  2. convert pdf to SVG with inkscape
  3. try and edit the SVG to my liking, fail, try again,
     get mad at LaTeX, do a bunch of manual changes to try and
     get the diagram(s) and text looking OK to me

  helpful for that last one was this: https://github.com/godotengine/godot-docs/issues/3861
 -->
<svg
   xmlns:dc="http://purl.org/dc/elements/1.1/"
   xmlns:cc="http://creativecommons.org/ns#"
   xmlns:rdf="http://www.w3.org/1999/02/22-rdf-syntax-ns#"
   xmlns:svg="http://www.w3.org/2000/svg"
   xmlns="http://www.w3.org/2000/svg"
   viewBox="0 0 531 333"
   height="333"
   width="531"
    xml:space="preserve"
   id="svg2">
  <style>
  path:not(.diagram) {
    fill: #FCFCFC;
    fill-opacity:15%;
  }

  path.diagram {
    fill:none;
    stroke:#242424;

    stroke-width:1.10239303;
    stroke-linecap:butt;
    stroke-linejoin:miter;
    stroke-miterlimit:10;
    stroke-dasharray:none;
    stroke-opacity:1;
  }

  #text392 {
    font-size: 20.8px !important;
  }

  @media (prefers-color-scheme: dark) {
    path:not(.diagram) {
      fill: #242424;
    }
    text{
      fill: rgba(255, 255, 255, 0.87);
    }
    path.diagram{
      stroke: #FCFCFC;
      stroke-width:1.2px;
    }
  }
  </style>

   <metadata
     id="metadata8"><rdf:RDF><cc:Work
         rdf:about=""><dc:format>image/svg+xml</dc:format><dc:type
           rdf:resource="http://purl.org/dc/dcmitype/StillImage" /></cc:Work></rdf:RDF></metadata><defs
     id="defs6"><clipPath
       id="clipPath14"
       clipPathUnits="userSpaceOnUse"><path
         id="path12"
         d="M 105.75,476.25 H 504 V 726 H 105.75 Z" /></clipPath><clipPath
       id="clipPath22"
       clipPathUnits="userSpaceOnUse"><path
         id="path20"
         d="M 0.051,0 H 611.93802 V 792 H 0.051 Z" /></clipPath><clipPath
       id="clipPath32"
       clipPathUnits="userSpaceOnUse"><path
         id="path30"
         d="M 0,0 H 1274 V 1649 H 0 Z" /></clipPath><clipPath
       id="clipPath142"
       clipPathUnits="userSpaceOnUse"><path
         id="path140"
         d="m 467,243 h 74 v 22 h -74 z" /></clipPath><clipPath
       id="clipPath148"
       clipPathUnits="userSpaceOnUse"><path
         style="clip-rule:evenodd"
         id="path146"
         d="M 260.387,148.883 V 524.059 H 1006.57 V 148.883 Z m 232.004,97.293 -26.164,-7.055 -2.352,8.379 26.164,7.203 -19.992,-9.996 z" /></clipPath><clipPath
       id="clipPath168"
       clipPathUnits="userSpaceOnUse"><path
         id="path166"
         d="m 467,197 h 74 v 22 h -74 z" /></clipPath><clipPath
       id="clipPath174"
       clipPathUnits="userSpaceOnUse"><path
         style="clip-rule:evenodd"
         id="path172"
         d="M 260.387,148.883 V 524.059 H 1006.57 V 148.883 Z m 256.695,59.519 26.164,-7.203 -2.351,-8.379 -26.165,7.055 22.489,-1.469 z" /></clipPath><clipPath
       id="clipPath194"
       clipPathUnits="userSpaceOnUse"><path
         id="path192"
         d="m 725,197 h 74 v 22 h -74 z" /></clipPath><clipPath
       id="clipPath200"
       clipPathUnits="userSpaceOnUse"><path
         style="clip-rule:evenodd"
         id="path198"
         d="M 260.387,148.883 V 524.059 H 1006.57 V 148.883 Z m 512.304,66.277 26.164,7.059 2.352,-8.379 -26.164,-7.203 20.137,10.144 z" /></clipPath><clipPath
       id="clipPath220"
       clipPathUnits="userSpaceOnUse"><path
         id="path218"
         d="m 725,243 h 74 v 22 h -74 z" /></clipPath><clipPath
       id="clipPath226"
       clipPathUnits="userSpaceOnUse"><path
         style="clip-rule:evenodd"
         id="path224"
         d="M 260.387,148.883 V 524.059 H 1006.57 V 148.883 Z m 487.609,104.055 -26.164,7.203 2.352,8.379 26.164,-7.055 -22.34,1.617 z" /></clipPath><clipPath
       id="clipPath246"
       clipPathUnits="userSpaceOnUse"><path
         id="path244"
         d="m 446,151 h 2 v 54 h -2 z" /></clipPath><clipPath
       id="clipPath252"
       clipPathUnits="userSpaceOnUse"><path
         style="clip-rule:evenodd"
         id="path250"
         d="M 260.387,148.883 V 524.059 H 1006.57 V 148.883 Z m 191.433,27.476 v -27.191 h -8.816 v 27.191 l 4.406,-22.047 z" /></clipPath><clipPath
       id="clipPath272"
       clipPathUnits="userSpaceOnUse"><path
         id="path270"
         d="m 394,177 h 34 v 35 h -34 z" /></clipPath><clipPath
       id="clipPath278"
       clipPathUnits="userSpaceOnUse"><path
         style="clip-rule:evenodd"
         id="path276"
         d="M 260.387,148.883 V 524.059 H 1006.57 V 148.883 Z m 154.836,43.351 -19.258,-19.109 -6.172,6.172 19.109,19.254 -12.347,-18.664 z" /></clipPath><clipPath
       id="clipPath298"
       clipPathUnits="userSpaceOnUse"><path
         id="path296"
         d="m 817,151 h 2 v 54 h -2 z" /></clipPath><clipPath
       id="clipPath304"
       clipPathUnits="userSpaceOnUse"><path
         style="clip-rule:evenodd"
         id="path302"
         d="M 260.387,148.883 V 524.059 H 1006.57 V 148.883 Z m 561.836,27.476 v -27.191 h -8.817 v 27.191 l 4.41,-22.047 z" /></clipPath><clipPath
       id="clipPath324"
       clipPathUnits="userSpaceOnUse"><path
         id="path322"
         d="m 837,177 h 35 v 35 h -35 z" /></clipPath><clipPath
       id="clipPath330"
       clipPathUnits="userSpaceOnUse"><path
         style="clip-rule:evenodd"
         id="path328"
         d="M 260.387,148.883 V 524.059 H 1006.57 V 148.883 Z m 595.793,49.668 19.105,-19.254 -6.172,-6.172 -19.254,19.109 18.813,-12.347 z" /></clipPath></defs><g
     clip-path="url(#clipPath14)"
     transform="matrix(1.3333333,0,0,-1.3333333,-141,968)"
     id="g10"><g
       transform="matrix(1,0,0,-1,0,792)"
       id="g16"><g
         clip-path="url(#clipPath22)"
         id="g18"><g
           transform="matrix(0.480288,0,0,0.480291,0.05,0)"
           id="g24"><g
             id="g26"><g
               clip-path="url(#clipPath32)"
               id="g28"><g
                 id="g34"><path
                   id="path38"
                   d="M 0,0 H 1274 V 1649 H 0 Z" /><g
                   transform="scale(1,-1)"
                   id="g40"><path
                     id="path42"
                     class="diagram"
                     d="m 420.953,-336.57 c 0,14.609 11.848,26.457 26.457,26.457 14.613,0 26.461,-11.848 26.461,-26.457" /></g><g
                   transform="scale(1,-1)"
                   id="g44"><path
                     id="path46"
                     class="diagram"
                     d="m 368.039,-468.859 c 0,-14.614 -11.844,-26.457 -26.457,-26.457 -14.609,0 -26.457,11.843 -26.457,26.457 0,14.609 11.848,26.457 26.457,26.457 14.613,0 26.457,-11.848 26.457,-26.457 z" /></g><g
                   transform="scale(1,-1)"
                   id="g48"><path
                     id="path50"
                     class="diagram"
                     d="m 473.871,-468.859 c 0,-14.614 -11.848,-26.457 -26.461,-26.457 -14.609,0 -26.457,11.843 -26.457,26.457 0,14.609 11.848,26.457 26.457,26.457 14.613,0 26.461,-11.848 26.461,-26.457 z" /></g><g
                   transform="scale(1,-1)"
                   id="g52"><path
                     id="path54"
                     class="diagram"
                     d="m 579.699,-468.859 c 0,-14.614 -11.847,-26.457 -26.457,-26.457 -14.613,0 -26.457,11.843 -26.457,26.457 0,14.609 11.844,26.457 26.457,26.457 14.61,0 26.457,-11.848 26.457,-26.457 z" /></g><g
                   transform="scale(1,-1)"
                   id="g56"><path
                     id="path58"
                     class="diagram"
                     d="m 473.871,-230.746 c 0,-14.609 -11.848,-26.453 -26.461,-26.453 -14.609,0 -26.457,11.844 -26.457,26.453 0,14.613 11.848,26.461 26.457,26.461 14.613,0 26.461,-11.848 26.461,-26.461 z" /></g><g
                   transform="scale(1,-1)"
                   id="g60"><path
                     id="path62"
                     class="diagram"
                     d="m 420.953,-336.57 v -26.461" /></g><g
                   transform="scale(1,-1)"
                   id="g64"><path
                     id="path66"
                     class="diagram"
                     d="m 420.953,-363.031 h 52.918 v 26.461" /></g><g
                   transform="scale(1,-1)"
                   id="g68"><path
                     id="path70"
                     class="diagram"
                     d="m 447.41,-442.402 v 79.371" /></g><g
                   transform="scale(1,-1)"
                   id="g72"><path
                     id="path74"
                     class="diagram"
                     d="m 361.426,-449.016 72.758,85.985" /></g><g
                   transform="scale(1,-1)"
                   id="g76"><path
                     id="path78"
                     class="diagram"
                     d="m 533.398,-449.016 -72.757,85.985" /></g><g
                   transform="scale(1,-1)"
                   id="g80"><path
                     id="path82"
                     class="diagram"
                     d="m 447.41,-310.113 v 52.914" /></g><g
                   transform="scale(1,-1)"
                   id="g84"><path
                     id="path86"
                     class="diagram"
                     d="m 791.359,-336.57 c 0,14.609 11.848,26.457 26.457,26.457 14.61,0 26.457,-11.848 26.457,-26.457" /></g><g
                   transform="scale(1,-1)"
                   id="g88"><path
                     id="path90"
                     class="diagram"
                     d="m 738.445,-468.859 c 0,-14.614 -11.847,-26.457 -26.461,-26.457 -14.609,0 -26.457,11.843 -26.457,26.457 0,14.609 11.848,26.457 26.457,26.457 14.614,0 26.461,-11.848 26.461,-26.457 z" /></g><g
                   transform="scale(1,-1)"
                   id="g92"><path
                     id="path94"
                     class="diagram"
                     d="m 844.273,-468.859 c 0,-14.614 -11.847,-26.457 -26.457,-26.457 -14.609,0 -26.457,11.843 -26.457,26.457 0,14.609 11.848,26.457 26.457,26.457 14.61,0 26.457,-11.848 26.457,-26.457 z" /></g><g
                   transform="scale(1,-1)"
                   id="g96"><path
                     id="path98"
                     class="diagram"
                     d="m 950.102,-468.859 c 0,-14.614 -11.844,-26.457 -26.457,-26.457 -14.61,0 -26.457,11.843 -26.457,26.457 0,14.609 11.847,26.457 26.457,26.457 14.613,0 26.457,-11.848 26.457,-26.457 z" /></g><g
                   transform="scale(1,-1)"
                   id="g100"><path
                     id="path102"
                     class="diagram"
                     d="m 844.273,-230.746 c 0,-14.609 -11.847,-26.453 -26.457,-26.453 -14.609,0 -26.457,11.844 -26.457,26.453 0,14.613 11.848,26.461 26.457,26.461 14.61,0 26.457,-11.848 26.457,-26.461 z" /></g><g
                   transform="scale(1,-1)"
                   id="g104"><path
                     id="path106"
                     class="diagram"
                     d="m 791.359,-336.57 v -26.461" /></g><g
                   transform="scale(1,-1)"
                   id="g108"><path
                     id="path110"
                     class="diagram"
                     d="m 791.359,-363.031 h 52.914 v 26.461" /></g><g
                   transform="scale(1,-1)"
                   id="g112"><path
                     id="path114"
                     class="diagram"
                     d="m 817.816,-442.402 v 79.371" /></g><g
                   transform="scale(1,-1)"
                   id="g116"><path
                     id="path118"
                     class="diagram"
                     d="m 731.828,-449.016 72.758,85.985" /></g><g
                   transform="scale(1,-1)"
                   id="g120"><path
                     id="path122"
                     class="diagram"
                     d="m 903.801,-449.016 -72.754,85.985" /></g><g
                   transform="scale(1,-1)"
                   id="g124"><path
                     id="path126"
                     class="diagram"
                     d="m 817.816,-310.113 v 52.914" /></g><g
                   transform="scale(1,-1)"
                   id="g128"><path
                     id="path130"
                     class="diagram"
                     d="m 540.012,-243.973 h 185.203 v -39.684 H 540.012 Z" /></g><g
                   transform="scale(1,-1)"
                   id="g132"><path
                     id="path134"
                     class="diagram"
                     d="m 540.012,-177.828 h 185.203 v -39.684 H 540.012 Z" /></g></g><g
                 id="g136"><g
                   clip-path="url(#clipPath142)"
                   id="g138"><g
                     clip-path="url(#clipPath148)"
                     id="g144"><g
                       transform="scale(1,-1)"
                       id="g150"><path
                         id="path152"
                         class="diagram"
                         d="m 467.254,-243.973 72.758,-19.84" /></g></g></g></g><g
                 id="g154"><path
                   id="path156"
                   d="m 492.391,246.176 -22.344,-1.469 19.992,9.996 -3.09,-5.441 5.442,-3.086" /><g
                   transform="scale(1,-1)"
                   id="g158"><path
                     id="path160"
                     class="diagram"
                     d="m 492.391,-246.176 -22.344,1.469 19.992,-9.996 -3.09,5.441 z" /></g></g><g
                 id="g162"><g
                   clip-path="url(#clipPath168)"
                   id="g164"><g
                     clip-path="url(#clipPath174)"
                     id="g170"><g
                       transform="scale(1,-1)"
                       id="g176"><path
                         id="path178"
                         class="diagram"
                         d="m 467.254,-217.512 72.758,19.84" /></g></g></g></g><g
                 id="g180"><path
                   id="path182"
                   d="m 517.082,208.402 20.137,-9.996 -22.489,1.469 5.442,3.086 -3.09,5.441" /><g
                   transform="scale(1,-1)"
                   id="g184"><path
                     id="path186"
                     class="diagram"
                     d="m 517.082,-208.402 20.137,9.996 -22.489,-1.469 5.442,-3.086 z" /></g></g><g
                 id="g188"><g
                   clip-path="url(#clipPath194)"
                   id="g190"><g
                     clip-path="url(#clipPath200)"
                     id="g196"><g
                       transform="scale(1,-1)"
                       id="g202"><path
                         id="path204"
                         class="diagram"
                         d="m 797.973,-217.512 -72.758,19.84" /></g></g></g></g><g
                 id="g206"><path
                   id="path208"
                   d="m 772.691,215.16 22.489,1.621 -20.137,-10.144 3.086,5.437 -5.438,3.086" /><g
                   transform="scale(1,-1)"
                   id="g210"><path
                     id="path212"
                     class="diagram"
                     d="m 772.691,-215.16 22.489,-1.621 -20.137,10.144 3.086,-5.437 z" /></g></g><g
                 id="g214"><g
                   clip-path="url(#clipPath220)"
                   id="g216"><g
                     clip-path="url(#clipPath226)"
                     id="g222"><g
                       transform="scale(1,-1)"
                       id="g228"><path
                         id="path230"
                         class="diagram"
                         d="m 797.973,-243.973 -72.758,-19.84" /></g></g></g></g><g
                 id="g232"><path
                   id="path234"
                   d="m 747.996,252.938 -19.988,10.144 22.34,-1.617 -5.438,-3.09 3.086,-5.437" /><g
                   transform="scale(1,-1)"
                   id="g236"><path
                     id="path238"
                     class="diagram"
                     d="m 747.996,-252.938 -19.988,-10.144 22.34,1.617 -5.438,3.09 z" /></g></g><g
                 id="g240"><g
                   clip-path="url(#clipPath246)"
                   id="g242"><g
                     clip-path="url(#clipPath252)"
                     id="g248"><g
                       transform="scale(1,-1)"
                       id="g254"><path
                         id="path256"
                         class="diagram"
                         d="m 447.41,-204.285 v 52.914" /></g></g></g></g><g
                 id="g258"><path
                   id="path260"
                   d="m 451.82,176.359 -4.41,-22.047 -4.406,22.047 4.406,-4.41 4.41,4.41" /><g
                   transform="scale(1,-1)"
                   id="g262"><path
                     id="path264"
                     class="diagram"
                     d="m 451.82,-176.359 -4.41,22.046 -4.406,-22.046 4.406,4.41 z" /></g></g><g
                 id="g266"><g
                   clip-path="url(#clipPath272)"
                   id="g268"><g
                     clip-path="url(#clipPath278)"
                     id="g274"><g
                       transform="scale(1,-1)"
                       id="g280"><path
                         id="path282"
                         class="diagram"
                         d="m 427.57,-210.898 -33.074,33.07" /></g></g></g></g><g
                 id="g284"><path
                   id="path286"
                   d="m 415.223,192.234 -18.668,-12.347 12.347,18.664 v -6.317 h 6.321" /><g
                   transform="scale(1,-1)"
                   id="g288"><path
                     id="path290"
                     class="diagram"
                     d="m 415.223,-192.234 -18.668,12.347 12.347,-18.664 v 6.317 z" /></g></g><g
                 id="g292"><g
                   clip-path="url(#clipPath298)"
                   id="g294"><g
                     clip-path="url(#clipPath304)"
                     id="g300"><g
                       transform="scale(1,-1)"
                       id="g306"><path
                         id="path308"
                         class="diagram"
                         d="m 817.816,-204.285 v 52.914" /></g></g></g></g><g
                 id="g310"><path
                   id="path312"
                   d="m 822.223,176.359 -4.407,-22.047 -4.41,22.047 4.41,-4.41 4.407,4.41" /><g
                   transform="scale(1,-1)"
                   id="g314"><path
                     id="path316"
                     class="diagram"
                     d="m 822.223,-176.359 -4.407,22.046 -4.41,-22.046 4.41,4.41 z" /></g></g><g
                 id="g318"><g
                   clip-path="url(#clipPath324)"
                   id="g320"><g
                     clip-path="url(#clipPath330)"
                     id="g326"><g
                       transform="scale(1,-1)"
                       id="g332"><path
                         id="path334"
                         class="diagram"
                         d="m 837.66,-210.898 33.07,33.07" /></g></g></g></g><g
                 id="g336"><path
                   id="path338"
                   d="m 856.18,198.551 12.492,-18.664 -18.813,12.347 h 6.321 v 6.317" /><g
                   transform="scale(1,-1)"
                   id="g340"><path
                     id="path342"
                     class="diagram"
                     d="m 856.18,-198.551 12.492,18.664 -18.813,-12.347 h 6.321 z" /></g><g
                   transform="scale(1,-1)"
                   id="g344"></g><g
                   transform="scale(1,-1)"
                   id="g348">
                   </g><text
                   id="text356"
                   style="font-variant:normal;font-size:29.80810356px;font-family:CairoFont-0;-inkscape-font-specification:CairoFont-0-0;writing-mode:lr-tb;/*fill:#000000;*/fill-opacity:1;fill-rule:nonzero;stroke:none"
                   transform="translate(293.35315,521.854)"><tspan
                     id="tspan352"
                     y="0"
                     x="0">R-slider G-slider B-slider</tspan>
                     <tspan x="375">H-slider S-slider V-slider</tspan><tspan
                     id="tspan354"
                     y="-251.34937"
                     x="263.69678 285.21823 301.91077 320.51102">HSV-</tspan></text>
<text
                   id="text360"
                   style="font-variant:normal;font-size:29.80810356px;font-family:CairoFont-1;-inkscape-font-specification:CairoFont-1-0;writing-mode:lr-tb;/*fill:#000000;*/fill-opacity:1;fill-rule:nonzero;stroke:none"
                   transform="translate(623.79026,270.50465)"><tspan
                     id="tspan358"
                     y="0"
                     x="0">&gt;</tspan></text>
<text
                   id="text366"
                   style="font-variant:normal;font-size:29.80810356px;font-family:CairoFont-0;-inkscape-font-specification:CairoFont-0-0;writing-mode:lr-tb;/*fill:#000000;*/fill-opacity:1;fill-rule:nonzero;stroke:none"
                   transform="translate(646.59346,270.50465)"><tspan
                     id="tspan362"
                     y="0"
                     x="0 19.882006 41.52269">RGB</tspan><tspan
                     id="tspan364"
                     y="-66.143555"
                     x="-91.037994 -71.155983 -49.515305 -29.633297">RGB-</tspan></text>
<text
                   id="text370"
                   style="font-variant:normal;font-size:29.80810356px;font-family:CairoFont-1;-inkscape-font-specification:CairoFont-1-0;writing-mode:lr-tb;/*fill:#000000;*/fill-opacity:1;fill-rule:nonzero;stroke:none"
                   transform="translate(627.00549,204.36109)"><tspan
                     id="tspan368"
                     y="0"
                     x="0">&gt;</tspan></text>
<text
                   id="text376"
                   style="font-variant:normal;font-size:29.80810356px;font-family:CairoFont-0;-inkscape-font-specification:CairoFont-0-0;writing-mode:lr-tb;/*fill:#000000;*/fill-opacity:1;fill-rule:nonzero;stroke:none"
                   transform="translate(649.68946,204.36109)"><tspan
                     id="tspan372"
                     y="0"
                     x="0 21.670492 38.243797">HSV</tspan><tspan
                     id="tspan374"
                     y="26.458239"
                     x="-388.13248 -368.25049 -346.6098 -326.72778 -316.71228 -303.47748 -288.48398 -280.19733 -265.20386 220.99115 242.51259 259.20514 277.80539 287.73148 300.96628 315.98956 324.27621 339.18027">RGB-colorHSV-color</tspan></text>
<text
                   id="text392"
                   style="font-variant:normal;font-size:24.84008598px;font-family:CairoFont-0;-inkscape-font-specification:CairoFont-0-0;writing-mode:lr-tb;/*fill:#000000;*/fill-opacity:1;fill-rule:nonzero;stroke:none"
                   transform="translate(224.5229,575.97315)"><tspan
                     id="tspan378"
                     y="0"
                     x="0">Figure 5-8: A network for a widget for RGB and HSV color selection. Traditional</tspan><tspan
                     id="tspan380"
                     y="31.147953"
                     x="0">functional reactive systems have qualms about the circularity, but general-purpose</tspan><tspan
                     id="tspan382"
                     y="62.295956"
                     x="0">propagation handles it automatically.</tspan></text>
</g></g></g></g></g></g></g></svg>
